<svg width="39" height="39" viewBox="0 0 39 39" fill="none" xmlns="http://www.w3.org/2000/svg">
<mask id="path-1-inside-1_50_18806" fill="white">
<path d="M0 10.1885C0 4.56155 4.56154 0 10.1885 0H28.8115C34.4384 0 39 4.56154 39 10.1885V28.8115C39 34.4384 34.4384 39 28.8115 39H10.1885C4.56155 39 0 34.4384 0 28.8115V10.1885Z"/>
</mask>
<path d="M0 10.1885C0 4.56155 4.56154 0 10.1885 0H28.8115C34.4384 0 39 4.56154 39 10.1885V28.8115C39 34.4384 34.4384 39 28.8115 39H10.1885C4.56155 39 0 34.4384 0 28.8115V10.1885Z" fill="#00D9FF" fill-opacity="0.1"/>
<path d="M10.1885 0V1.18349H28.8115V0V-1.18349H10.1885V0ZM39 10.1885H37.8165V28.8115H39H40.1835V10.1885H39ZM28.8115 39V37.8165H10.1885V39V40.1835H28.8115V39ZM0 28.8115H1.18349V10.1885H0H-1.18349V28.8115H0ZM10.1885 39V37.8165C5.21517 37.8165 1.18349 33.7848 1.18349 28.8115H0H-1.18349C-1.18349 35.0921 3.90792 40.1835 10.1885 40.1835V39ZM39 28.8115H37.8165C37.8165 33.7848 33.7848 37.8165 28.8115 37.8165V39V40.1835C35.0921 40.1835 40.1835 35.0921 40.1835 28.8115H39ZM28.8115 0V1.18349C33.7848 1.18349 37.8165 5.21517 37.8165 10.1885H39H40.1835C40.1835 3.90791 35.0921 -1.18349 28.8115 -1.18349V0ZM10.1885 0V-1.18349C3.90791 -1.18349 -1.18349 3.90792 -1.18349 10.1885H0H1.18349C1.18349 5.21517 5.21517 1.18349 10.1885 1.18349V0Z" fill="#00D9FF" fill-opacity="0.3" mask="url(#path-1-inside-1_50_18806)"/>
<g clip-path="url(#clip0_50_18806)">
<path d="M16.1066 11.0167V14.41" stroke="#00D9FF" stroke-width="1.66527" stroke-linecap="round" stroke-linejoin="round"/>
<path d="M22.8932 11.0167V14.41" stroke="#00D9FF" stroke-width="1.66527" stroke-linecap="round" stroke-linejoin="round"/>
<path d="M25.4383 12.7133H13.5617C12.6246 12.7133 11.865 13.473 11.865 14.41V26.2866C11.865 27.2236 12.6246 27.9833 13.5617 27.9833H25.4383C26.3753 27.9833 27.1349 27.2236 27.1349 26.2866V14.41C27.1349 13.473 26.3753 12.7133 25.4383 12.7133Z" stroke="#00D9FF" stroke-width="1.66527" stroke-linecap="round" stroke-linejoin="round"/>
<path d="M11.865 17.8033H27.1349" stroke="#00D9FF" stroke-width="1.66527" stroke-linecap="round" stroke-linejoin="round"/>
</g>
<defs>
<clipPath id="clip0_50_18806">
<rect width="19.9832" height="19.9832" fill="white" transform="translate(9.31988 9.32) scale(1.01885)"/>
</clipPath>
</defs>
</svg>
