<svg width="32" height="32" viewBox="0 0 32 32" fill="none" xmlns="http://www.w3.org/2000/svg">
<path d="M20.6361 17.1867L22.6561 28.5547C22.6787 28.6886 22.6599 28.8261 22.6023 28.949C22.5446 29.0719 22.4508 29.1743 22.3333 29.2424C22.2159 29.3106 22.0805 29.3412 21.9452 29.3303C21.8099 29.3194 21.6811 29.2674 21.5761 29.1814L16.8028 25.5987C16.5723 25.4266 16.2924 25.3335 16.0048 25.3335C15.7171 25.3335 15.4372 25.4266 15.2068 25.5987L10.4254 29.18C10.3205 29.266 10.1919 29.3178 10.0568 29.3288C9.9216 29.3397 9.78633 29.3091 9.66898 29.2412C9.55163 29.1733 9.4578 29.0711 9.39999 28.9485C9.34218 28.8258 9.32315 28.6885 9.34543 28.5547L11.3641 17.1867" stroke="#B967FF" stroke-width="2.66655" stroke-linecap="round" stroke-linejoin="round"/>
<path d="M15.9999 18.6667C20.4182 18.6667 23.9999 15.085 23.9999 10.6667C23.9999 6.24841 20.4182 2.66669 15.9999 2.66669C11.5816 2.66669 7.99988 6.24841 7.99988 10.6667C7.99988 15.085 11.5816 18.6667 15.9999 18.6667Z" stroke="#B967FF" stroke-width="2.66655" stroke-linecap="round" stroke-linejoin="round"/>
</svg>
