<svg width="20" height="20" viewBox="0 0 20 20" fill="none" xmlns="http://www.w3.org/2000/svg">
<path d="M17.4871 10.4049C17.409 11.8517 16.9135 13.2449 16.0605 14.416C15.2075 15.5872 14.0336 16.4862 12.6805 17.0044C11.3275 17.5227 9.8533 17.6378 8.43619 17.3361C7.01907 17.0344 5.7197 16.3286 4.69513 15.3041C3.67056 14.2797 2.96467 12.9804 2.66278 11.5633C2.36089 10.1462 2.47593 8.67203 2.99399 7.31894C3.51205 5.96584 4.41096 4.79177 5.58205 3.93865C6.75314 3.08553 8.14627 2.58989 9.59304 2.51163C9.93053 2.4933 10.1072 2.89496 9.92803 3.18079C9.32878 4.13958 9.07218 5.27317 9.20012 6.39656C9.32805 7.51995 9.83297 8.56681 10.6325 9.3663C11.432 10.1658 12.4788 10.6707 13.6022 10.7986C14.7256 10.9266 15.8592 10.67 16.818 10.0707C17.1046 9.89157 17.5055 10.0674 17.4871 10.4049Z" stroke="#00D9FF" stroke-width="1.66527" stroke-linecap="round" stroke-linejoin="round"/>
</svg>
