<svg width="24" height="24" viewBox="0 0 24 24" fill="none" xmlns="http://www.w3.org/2000/svg">
<path d="M11.9999 7.00005V21" stroke="#99A1AF" stroke-width="1.99953" stroke-linecap="round" stroke-linejoin="round"/>
<path d="M2.99998 18C2.73476 18 2.48041 17.8946 2.29287 17.7071C2.10534 17.5195 1.99998 17.2652 1.99998 17V3.99997C1.99998 3.73475 2.10534 3.4804 2.29287 3.29286C2.48041 3.10533 2.73476 2.99997 2.99998 2.99997H7.99998C9.06084 2.99997 10.0783 3.4214 10.8284 4.17154C11.5786 4.92169 12 5.9391 12 6.99997C12 5.9391 12.4214 4.92169 13.1716 4.17154C13.9217 3.4214 14.9391 2.99997 16 2.99997H21C21.2652 2.99997 21.5195 3.10533 21.7071 3.29286C21.8946 3.4804 22 3.73475 22 3.99997V17C22 17.2652 21.8946 17.5195 21.7071 17.7071C21.5195 17.8946 21.2652 18 21 18H15C14.2043 18 13.4413 18.316 12.8787 18.8786C12.316 19.4413 12 20.2043 12 21C12 20.2043 11.6839 19.4413 11.1213 18.8786C10.5587 18.316 9.79563 18 8.99998 18H2.99998Z" stroke="#99A1AF" stroke-width="1.99953" stroke-linecap="round" stroke-linejoin="round"/>
</svg>
