<svg width="32" height="32" viewBox="0 0 32 32" fill="none" xmlns="http://www.w3.org/2000/svg">
<path d="M16.0002 9.33333V28" stroke="#00D9FF" stroke-width="2.66655" stroke-linecap="round" stroke-linejoin="round"/>
<path d="M3.99996 24C3.64633 24 3.3072 23.8595 3.05715 23.6095C2.8071 23.3594 2.66662 23.0203 2.66662 22.6667V5.33333C2.66662 4.97971 2.8071 4.64057 3.05715 4.39052C3.3072 4.14047 3.64633 4 3.99996 4H10.6666C12.0811 4 13.4377 4.5619 14.4379 5.56209C15.4381 6.56229 16 7.91884 16 9.33333C16 7.91884 16.5619 6.56229 17.562 5.56209C18.5622 4.5619 19.9188 4 21.3333 4H27.9999C28.3536 4 28.6927 4.14047 28.9428 4.39052C29.1928 4.64057 29.3333 4.97971 29.3333 5.33333V22.6667C29.3333 23.0203 29.1928 23.3594 28.9428 23.6095C28.6927 23.8595 28.3536 24 27.9999 24H20C18.9391 24 17.9217 24.4214 17.1715 25.1716C16.4214 25.9217 16 26.9391 16 28C16 26.9391 15.5785 25.9217 14.8284 25.1716C14.0782 24.4214 13.0608 24 12 24H3.99996Z" stroke="#00D9FF" stroke-width="2.66655" stroke-linecap="round" stroke-linejoin="round"/>
</svg>
